C:\GBW_MyPrograms\PredSimResults\Vitruvian_man\IG_v20ms_QR.mot
version=1
nRows=10
nColumns=35
inDegrees=yes
endheader
                time	         pelvis_tilt	           pelvis_tx	           pelvis_ty	       hip_flexion_r	        knee_angle_r	       ankle_angle_r	         mtp_angle_r	       hip_flexion_l	        knee_angle_l	       ankle_angle_l	         mtp_angle_l	    lumbar_extension	          arm_flex_r	          arm_flex_l	        elbow_flex_r	        elbow_flex_l	hamstrings_r/activation	bifemsh_r/activation	glut_max_r/activation	iliopsoas_r/activation	rect_fem_r/activation	  vasti_r/activation	gastroc_r/activation	 soleus_r/activation	tib_ant_r/activation	hamstrings_l/activation	bifemsh_l/activation	glut_max_l/activation	iliopsoas_l/activation	rect_fem_l/activation	  vasti_l/activation	gastroc_l/activation	 soleus_l/activation	tib_ant_l/activation	
          1.09440180	         -5.26104239	          2.17131910	          0.97413403	        -10.48428401	        -18.20262043	         -7.20286850	         25.04726289	         35.64546821	        -24.38922125	          2.11274071	          0.37654344	        -12.72852743	         31.22197953	         31.22846845	        111.18866686	        111.17647310	          0.05013795	          0.25401495	          0.06683215	          0.86213776	          0.15912878	          0.07369254	          0.53071486	          0.22101187	          0.05004477	          0.83360486	          0.05110998	          0.36021947	          0.06929620	          0.06763512	          0.05025702	          0.05613614	          0.05624761	          0.37235559	
          1.10169781	         -5.64059325	          2.18924520	          0.97119531	        -10.73729851	        -18.76044240	         -8.46418663	         25.35996282	         35.41220745	        -23.54639347	          1.75601227	          0.40022364	        -11.82166447	         30.77874218	         30.78861345	        112.27898859	        112.26994447	          0.05021617	          0.28268489	          0.05961007	          0.90723865	          0.14189452	          0.06570874	          0.47400258	          0.19707220	          0.05003763	          0.85035776	          0.05124601	          0.40413338	          0.06190989	          0.06124826	          0.11875289	          0.05009108	          0.05016443	          0.46890998	
          1.10899382	         -6.04105413	          2.20753768	          0.96797473	        -10.70536887	        -19.80291891	         -9.79778876	         25.54769450	         35.34520442	        -23.96241329	          1.06442495	          0.43789758	        -10.79368813	         30.13978630	         30.15303843	        113.17234155	        113.16451604	          0.05324769	          0.25341777	          0.05319013	          0.93756148	          0.12652758	          0.05859080	          0.42272286	          0.17571854	          0.05005645	          0.75817705	          0.05067048	          0.47279607	          0.05536879	          0.05587594	          0.21323554	          0.05489480	          0.05598817	          0.42720182	
          1.11628984	         -6.46228600	          2.22615386	          0.96453167	        -10.39423240	        -21.30184288	        -11.21071794	         25.50794207	         35.32348521	        -25.12827124	          0.91517926	          0.32334910	         -9.65686739	         29.30439277	         29.32096611	        113.87382637	        113.86667141	          0.06079001	          0.22604688	          0.05014976	          0.92374476	          0.11283215	          0.05224861	          0.37694693	          0.15667720	          0.05005539	          0.67598219	          0.05886258	          0.54893520	          0.05016393	          0.05016304	          0.34457407	          0.05007872	          0.05003314	          0.50200304	
          1.12358585	         -6.90264854	          2.24497272	          0.96101556	         -9.80301326	        -23.25043380	        -12.66400355	         25.04796744	         35.21270472	        -26.21422641	          1.21785649	          0.31294980	         -8.43891832	         28.28025418	         28.29984442	        114.38952979	        114.38386291	          0.05466222	          0.20159961	          0.05015519	          0.85013440	          0.10066031	          0.05002942	          0.33611551	          0.13969795	          0.05004159	          0.60269691	          0.05618186	          0.59406135	          0.05011927	          0.05012625	          0.47614230	          0.05012623	          0.05004608	          0.44762165	
          1.13088186	         -7.34317505	          2.26376860	          0.95765169	         -8.95520288	        -25.59045936	        -14.20740671	         24.06001601	         35.06722358	        -27.27316532	          1.97982911	          0.14498989	         -7.20068060	         27.09869378	         27.12075446	        114.71535980	        114.71282411	          0.05050356	          0.17980553	          0.05047424	          0.75804038	          0.11374710	          0.05009630	          0.29970458	          0.12455792	          0.21960058	          0.53735643	          0.05075403	          0.61935283	          0.05006475	          0.05012486	          0.60433901	          0.05051661	          0.08485394	          0.39911182	
          1.13817787	         -7.76751712	          2.28230220	          0.95465307	         -7.89141178	        -28.23979248	        -15.70322006	         22.32738525	         34.99320013	        -28.55104760	          3.48611770	          0.07804871	         -5.99946331	         25.79757915	         25.82145779	        114.84148090	        114.84408278	          0.05034686	          0.16046315	          0.05012104	          0.67587855	          0.20474646	          0.05003250	          0.26725410	          0.11106119	          0.31160336	          0.47909973	          0.05048126	          0.62605431	          0.05008597	          0.05016554	          0.73375219	          0.05016354	          0.11568446	          0.35585698	
          1.14547388	         -8.15660243	          2.30051045	          0.95215176	         -6.70644995	        -31.02223671	        -16.70218945	         20.26055776	         34.93877489	        -29.88316256	          4.94665923	          0.07133221	         -4.87101538	         24.39538349	         24.42058766	        114.76570794	        114.77501537	          0.05012982	          0.14349681	          0.05006581	          0.60261600	          0.28060116	          0.05003496	          0.23834701	          0.09903282	          0.31834188	          0.42715903	          0.05050713	          0.60966807	          0.05014131	          0.05037036	          0.82084859	          0.05019301	          0.16175386	          0.31729306	
          1.15276990	         -8.49596958	          2.31844520	          0.95021769	         -5.48802174	        -33.79793386	        -16.57584372	         18.38749784	         34.80686299	        -31.13353405	          6.32409731	          0.21873289	         -3.83013170	         22.89967111	         22.92599643	        114.49142943	        114.50776667	          0.05031876	          0.14377159	          0.05006371	          0.53729543	          0.34937607	          0.05002601	          0.21255159	          0.08830383	          0.40547388	          0.38084967	          0.05068864	          0.54565599	          0.05012138	          0.05020700	          0.87944387	          0.05019399	          0.20370154	          0.28291621	
          1.16006591	         -8.78274873	          2.33615567	          0.94889494	         -4.28197753	        -36.42656349	        -15.98969692	         16.73006112	         34.53146963	        -32.19783981	          7.58082379	          0.54000343	         -2.87884921	         21.32364878	         21.35108776	        114.02188488	        114.04450245	          0.05170251	          0.17073325	          0.05007018	          0.47906078	          0.42432853	          0.05002535	          0.18955023	          0.07873776	          0.38899867	          0.33956120	          0.05092956	          0.48652657	          0.05010414	          0.05015692	          0.91885341	          0.05020989	          0.24568098	          0.25227994	
